<mxfile host="app.diagrams.net" modified="2023-11-05T20:37:03.086Z" agent="Mozilla/5.0 (Windows NT 10.0; Win64; x64) AppleWebKit/537.36 (KHTML, like Gecko) Chrome/119.0.0.0 Safari/537.36" version="22.0.8" etag="flm619iLyyEqbAdP27fF" type="github">
  <diagram name="Страница — 1" id="MtRnmT9-x1rUG56vwGtv">
    <mxGraphModel>
      <root>
        <mxCell id="0" />
        <mxCell id="1" parent="0" />
      </root>
    </mxGraphModel>
  </diagram>
</mxfile>
